<svg xmlns="http://www.w3.org/2000/svg" version="1.1" xmlns:xlink="http://www.w3.org/1999/xlink" xmlns:svgjs="http://svgjs.dev/svgjs" width="1500" height="1500" viewBox="0 0 1500 1500"><rect width="1500" height="1500" fill="#000000"></rect><g transform="matrix(0.6666666666666666,0,0,0.6666666666666666,249.39393939393938,438.5856950067477)"><svg viewBox="0 0 396 247" data-background-color="#dfdad6" preserveAspectRatio="xMidYMid meet" height="935" width="1500" xmlns="http://www.w3.org/2000/svg" xmlns:xlink="http://www.w3.org/1999/xlink"><g id="tight-bounds" transform="matrix(1,0,0,1,0.2400000000000091,-0.09999999999999432)"><svg viewBox="0 0 395.52 247.2" height="247.2" width="395.52"><g><svg></svg></g><g><svg viewBox="0 0 395.52 247.2" height="247.2" width="395.52"><g transform="matrix(1,0,0,1,134.95966880466472,47.215199999999996)"><svg viewBox="0 0 125.60066239067055 152.7696" height="152.7696" width="125.60066239067055"><g><svg viewBox="0 0 125.60066239067055 152.7696" height="152.7696" width="125.60066239067055"><g><svg viewBox="0 0 125.60066239067055 152.7696" height="152.7696" width="125.60066239067055"><g><svg viewBox="0 0 125.60066239067055 152.7696" height="152.7696" width="125.60066239067055"><g id="textblocktransform"><svg viewBox="0 0 125.60066239067055 152.7696" height="152.7696" width="125.60066239067055" id="textblock"><g><svg viewBox="0 0 125.60066239067055 152.7696" height="152.7696" width="125.60066239067055"><g transform="matrix(1,0,0,1,0,0)"><svg width="125.60066239067055" viewBox="3.95 -34.3 28.2 34.3" height="152.7696" data-palette-color="#e33e33"><path d="M3.95 0L3.95-34.3 8.2-34.3 26.3-10.4 27.5-8.8 27.7-8.85 27.7-11.15 27.7-34.3 32.15-34.3 32.15 0 28.1 0 9.9-24.2 8.6-25.95 8.4-25.9 8.4-23.85 8.4 0 3.95 0Z" opacity="1" transform="matrix(1,0,0,1,0,0)" fill="#ffffff" class="wordmark-text-0" data-fill-palette-color="primary" id="text-0"></path></svg></g></svg></g></svg></g></svg></g></svg></g></svg></g></svg></g><path d="M317.261 41.215L317.261 0 70.061 0 70.061 247.2 317.261 247.2 317.261 205.985 303.484 205.985 303.484 233.423 83.838 233.423 83.838 13.777 303.484 13.777 303.484 41.215Z" fill="#ffffff" stroke="transparent" data-fill-palette-color="tertiary"></path></svg></g><defs></defs></svg><rect width="395.52" height="247.2" fill="none" stroke="none" visibility="hidden"></rect></g></svg></g></svg>