<?xml version="1.0" standalone="no"?>
<!DOCTYPE svg PUBLIC "-//W3C//DTD SVG 20010904//EN"
 "http://www.w3.org/TR/2001/REC-SVG-20010904/DTD/svg10.dtd">
<svg version="1.0" xmlns="http://www.w3.org/2000/svg"
 width="1080.000000pt" height="1080.000000pt" viewBox="0 0 1080.000000 1080.000000"
 preserveAspectRatio="xMidYMid meet">

<g transform="translate(0.000000,1080.000000) scale(0.100000,-0.100000)"
fill="#000000" stroke="none">
<path d="M910 10125 l0 -235 45 0 45 0 0 190 0 190 340 0 340 0 0 -190 0 -190
45 0 45 0 0 235 0 235 -430 0 -430 0 0 -235z"/>
<path d="M1513 9765 c0 -22 2 -30 4 -17 2 12 2 30 0 40 -3 9 -5 -1 -4 -23z"/>
<path d="M1513 9655 c0 -22 2 -30 4 -17 2 12 2 30 0 40 -3 9 -5 -1 -4 -23z"/>
<path d="M1514 9425 c0 -55 1 -76 3 -47 2 29 2 74 0 100 -2 26 -3 2 -3 -53z"/>
<path d="M1079 9007 c-110 -56 -178 -177 -166 -293 7 -70 32 -110 79 -129 64
-25 73 -21 47 21 -27 44 -37 149 -20 212 17 63 95 142 141 142 7 0 10 -145 10
-460 l0 -460 40 0 40 0 0 377 c0 216 4 373 9 368 5 -6 82 -175 172 -377 l163
-368 88 0 88 0 0 500 0 500 -45 0 -45 0 -2 -429 -3 -428 -180 415 c-99 228
-186 421 -193 429 -9 8 -39 13 -87 13 -63 0 -82 -4 -136 -33z"/>
<path d="M910 7735 l0 -235 430 0 430 0 0 236 0 235 -42 -3 -43 -3 -3 -187 -2
-188 -340 0 -340 0 0 190 0 190 -45 0 -45 0 0 -235z"/>
</g>
</svg>
