<?xml version="1.0" standalone="no"?>
<!DOCTYPE svg PUBLIC "-//W3C//DTD SVG 20010904//EN"
 "http://www.w3.org/TR/2001/REC-SVG-20010904/DTD/svg10.dtd">
<svg version="1.0" xmlns="http://www.w3.org/2000/svg"
 width="1080.000000pt" height="1080.000000pt" viewBox="0 0 1080.000000 1080.000000"
 preserveAspectRatio="xMidYMid meet">

<g transform="translate(0.000000,1080.000000) scale(0.100000,-0.100000)"
fill="#000000" stroke="none">
<path d="M0 5400 l0 -5400 5400 0 5400 0 0 5400 0 5400 -5400 0 -5400 0 0
-5400z m2148 4643 l2 -233 -45 0 -45 0 -2 188 -3 187 -337 3 -338 2 0 -190 0
-190 -45 0 -45 0 0 235 0 235 428 -2 427 -3 3 -232z m-254 -319 c3 -9 6 -29 6
-45 0 -27 2 -29 41 -29 33 0 40 -3 37 -17 -2 -13 -14 -19 -40 -21 -35 -3 -37
-5 -40 -40 -2 -26 -8 -38 -20 -40 -15 -3 -18 4 -18 37 0 40 0 40 -42 43 -30 2
-43 8 -43 18 0 10 13 16 43 18 41 3 42 4 42 41 0 50 20 71 34 35z m-199 -94
c0 -12 -20 -16 -100 -20 l-100 -5 -3 -177 -2 -178 179 0 180 0 3 98 c3 89 5
97 23 97 18 0 20 -8 23 -94 4 -147 14 -141 -228 -141 -187 0 -200 1 -210 19
-6 12 -10 94 -10 198 0 233 -5 225 138 221 87 -2 107 -6 107 -18z m-19 -678
c10 -6 350 -783 362 -824 17 -64 22 30 22 407 l0 425 45 0 45 0 0 -500 0 -501
-92 3 -92 3 -165 370 -166 370 -3 -372 -2 -373 -45 0 -45 0 0 460 c0 253 -2
460 -5 460 -4 0 -18 -6 -34 -14 -46 -24 -99 -91 -106 -133 -3 -21 -8 -46 -10
-56 -7 -35 15 -131 35 -159 l21 -28 -29 0 c-35 0 -92 36 -110 70 -9 17 -12 53
-9 111 4 99 27 149 98 213 62 57 111 76 199 76 41 0 80 -4 86 -8z m-298 -1254
l2 -188 340 0 340 0 0 191 0 190 43 -3 42 -3 3 -232 2 -233 -430 0 -430 0 0
236 0 235 43 -3 42 -3 3 -187z"/>
</g>
</svg>
