<?xml version="1.0" encoding="UTF-8"?>
<svg version="1.1" xmlns="http://www.w3.org/2000/svg" width="1080" height="1080">
<path d="M0 0 C356.4 0 712.8 0 1080 0 C1080 356.4 1080 712.8 1080 1080 C723.6 1080 367.2 1080 0 1080 C0 723.6 0 367.2 0 0 Z " fill="#FEFEFE" transform="translate(0,0)"/>
<path d="M0 0 C0.70705078 -0.02449219 1.41410156 -0.04898438 2.14257812 -0.07421875 C5.31932512 -0.09211592 7.49442004 0.08680538 10.18359375 1.8359375 C12.69055646 5.46517082 14.28132696 9.29905893 15.9375 13.375 C16.73389072 15.28275432 17.53079216 17.19029549 18.328125 19.09765625 C18.75029297 20.11617676 19.17246094 21.13469727 19.60742188 22.18408203 C21.92538756 27.74498723 24.31085167 33.27641837 26.6875 38.8125 C28.75 43.618125 30.8125 48.42375 32.9375 53.375 C37.2275 63.275 41.5175 73.175 45.9375 83.375 C46.2675 55.985 46.5975 28.595 46.9375 0.375 C49.9075 0.375 52.8775 0.375 55.9375 0.375 C55.9375 33.375 55.9375 66.375 55.9375 100.375 C49.9975 100.375 44.0575 100.375 37.9375 100.375 C34.875 93.3125 34.875 93.3125 33.96069336 91.19506836 C31.97433293 86.63621819 29.89357646 82.12685548 27.78125 77.625 C23.24161229 67.94668759 18.87726765 58.19003461 14.5 48.4375 C11.674375 42.146875 8.84875 35.85625 5.9375 29.375 C5.6075 52.805 5.2775 76.235 4.9375 100.375 C1.9675 100.375 -1.0025 100.375 -4.0625 100.375 C-4.0625 70.015 -4.0625 39.655 -4.0625 8.375 C-11.10791095 11.4916911 -11.10791095 11.4916911 -15.5 16.375 C-15.97308594 17.035 -16.44617188 17.695 -16.93359375 18.375 C-20.30900454 24.35496651 -20.21844687 33.19798954 -18.42578125 39.67578125 C-17.721027 41.28124581 -16.89974237 42.83447404 -16.0625 44.375 C-15.7325 45.365 -15.4025 46.355 -15.0625 47.375 C-18.79878956 47.7308371 -20.84513521 47.48155137 -24.25 45.8125 C-28.37368831 42.2386368 -29.76855307 39.07359608 -30.34375 33.79296875 C-30.65123662 24.63242994 -28.55964341 17.40268992 -22.8046875 10.23046875 C-16.18542972 3.1808108 -9.69299722 0.01776901 0 0 Z " fill="#A81D19" transform="translate(121.0625,175.625)"/>
<path d="M0 0 C2.97 0 5.94 0 9 0 C9 12.54 9 25.08 9 38 C31.44 38 53.88 38 77 38 C77 25.46 77 12.92 77 0 C79.97 0 82.94 0 86 0 C86 15.51 86 31.02 86 47 C57.62 47 29.24 47 0 47 C0 31.49 0 15.98 0 0 Z " fill="#A71915" transform="translate(91,283)"/>
<path d="M0 0 C28.38 0 56.76 0 86 0 C86 15.51 86 31.02 86 47 C83.03 47 80.06 47 77 47 C77 34.46 77 21.92 77 9 C54.56 9 32.12 9 9 9 C9 21.54 9 34.08 9 47 C6.03 47 3.06 47 0 47 C0 31.49 0 15.98 0 0 Z " fill="#A81C18" transform="translate(91,44)"/>
<path d="M0 0 C0.91120605 0.01047363 1.82241211 0.02094727 2.76123047 0.03173828 C3.74736328 0.03818359 4.73349609 0.04462891 5.74951172 0.05126953 C7.29832031 0.07640625 7.29832031 0.07640625 8.87841797 0.10205078 C9.91869141 0.11107422 10.95896484 0.12009766 12.03076172 0.12939453 C14.60520889 0.15301331 17.17920009 0.18594929 19.75341797 0.22705078 C19.75341797 1.54705078 19.75341797 2.86705078 19.75341797 4.22705078 C13.15341797 4.22705078 6.55341797 4.22705078 -0.24658203 4.22705078 C-0.24658203 16.10705078 -0.24658203 27.98705078 -0.24658203 40.22705078 C11.63341797 40.22705078 23.51341797 40.22705078 35.75341797 40.22705078 C35.75341797 33.62705078 35.75341797 27.02705078 35.75341797 20.22705078 C37.07341797 20.22705078 38.39341797 20.22705078 39.75341797 20.22705078 C39.81144495 23.66447996 39.84702283 27.10178331 39.87841797 30.53955078 C39.89517578 31.51601562 39.91193359 32.49248047 39.92919922 33.49853516 C39.93886719 34.90522461 39.93886719 34.90522461 39.94873047 36.34033203 C39.96444092 37.63644409 39.96444092 37.63644409 39.98046875 38.95874023 C39.75341797 41.22705078 39.75341797 41.22705078 37.75341797 44.22705078 C34.72605745 44.51851068 31.90655041 44.62282249 28.87841797 44.59033203 C27.55801514 44.59107979 27.55801514 44.59107979 26.2109375 44.59184265 C24.34812159 44.5895001 22.48530265 44.57976091 20.62255859 44.56323242 C17.76485 44.53964514 14.9080741 44.54266926 12.05029297 44.54931641 C10.24299572 44.54373969 8.43570241 44.53662985 6.62841797 44.52783203 C5.34088623 44.52919914 5.34088623 44.52919914 4.02734375 44.53059387 C-2.01556395 44.45806887 -2.01556395 44.45806887 -4.24658203 42.22705078 C-4.44664506 39.23742975 -4.52631126 36.34242728 -4.51220703 33.35205078 C-4.51412048 32.47178223 -4.51603394 31.59151367 -4.51800537 30.68457031 C-4.51936755 28.82177444 -4.51566885 26.95896909 -4.50732422 25.09619141 C-4.4966251 22.23855342 -4.50721835 19.38154412 -4.52001953 16.52392578 C-4.51869794 14.71663272 -4.51613556 12.90934005 -4.51220703 11.10205078 C-4.51625549 10.24369629 -4.52030396 9.3853418 -4.5244751 8.50097656 C-4.46057515 0.45080796 -4.46057515 0.45080796 0 0 Z " fill="#FF6E44" transform="translate(112.24658203125,106.77294921875)"/>
<path d="M0 0 C0.99 0.33 1.98 0.66 3 1 C3 3.64 3 6.28 3 9 C5.64 9 8.28 9 11 9 C11 9.99 11 10.98 11 12 C8.36 12 5.72 12 3 12 C3 14.97 3 17.94 3 21 C1.68 21 0.36 21 -1 21 C-1 18.36 -1 15.72 -1 13 C-3.64 13 -6.28 13 -9 13 C-9 11.68 -9 10.36 -9 9 C-6.36 9 -3.72 9 -1 9 C-1.020625 7.700625 -1.04125 6.40125 -1.0625 5.0625 C-1.08399454 3.70834367 -1.07148199 2.35243917 -1 1 C-0.67 0.67 -0.34 0.34 0 0 Z " fill="#FF734A" transform="translate(149,98)"/>
</svg>
