<svg xmlns="http://www.w3.org/2000/svg" width="1080" height="1080" viewBox="0 0 1080 1080" version="1.1"><path d="M 91 67.500 L 91 91 95.500 91 L 100 91 100 72 L 100 53 134 53 L 168 53 168 72 L 168 91 172.500 91 L 177 91 177 67.500 L 177 44 134 44 L 91 44 91 67.500 M 149 102.417 L 149 107 144.500 107 C 141.246 107, 140 107.400, 140 108.443 C 140 109.425, 141.356 109.983, 144.250 110.193 C 148.490 110.499, 148.501 110.510, 148.811 114.813 C 149.210 120.364, 151.385 119.899, 151.807 114.172 C 152.113 110.033, 152.147 110, 156.057 110 C 158.895 110, 160 109.580, 160 108.500 C 160 107.420, 158.895 107, 156.057 107 C 152.147 107, 152.113 106.967, 151.807 102.828 C 151.368 96.861, 149 96.515, 149 102.417 M 109.655 108.829 C 108.237 110.395, 108 113.379, 108 129.629 C 108 143.051, 108.351 148.951, 109.200 149.800 C 110.050 150.650, 116.017 151, 129.677 151 C 153.144 151, 152.243 151.575, 151.789 136.877 C 151.543 128.899, 151.243 127.474, 149.750 127.188 C 148.177 126.887, 148 127.872, 148 136.927 L 148 147 130 147 L 112 147 112 129 L 112 111 122 111 C 131.333 111, 132 110.867, 132 109 C 132 107.129, 131.333 107, 121.655 107 C 112.903 107, 111.055 107.282, 109.655 108.829 M 108.207 178.584 C 94.743 185.294, 87.304 203.265, 92.895 215.576 C 94.794 219.757, 99.595 223, 103.885 223 L 105.968 223 103.734 218.750 C 100.630 212.845, 100.555 200.310, 103.588 194.500 C 105.729 190.398, 113.035 184, 115.578 184 C 116.787 184, 117 190.895, 117 230 L 117 276 121.500 276 L 126 276 126.020 238.750 L 126.039 201.500 142.660 238.750 L 159.280 276 168.140 276 L 177 276 177 226 L 177 176 172.511 176 L 168.021 176 167.761 218.747 L 167.500 261.494 149.594 219.997 C 139.746 197.174, 130.998 177.938, 130.153 177.250 C 129.225 176.494, 125.610 176, 121.005 176 C 114.824 176, 112.418 176.486, 108.207 178.584 M 91 306.500 L 91 330 134 330 L 177 330 177 306.500 L 177 283 172.500 283 L 168 283 168 302 L 168 321 134 321 L 100 321 100 302 L 100 283 95.500 283 L 91 283 91 306.500" stroke="none" fill="#b2231b" fill-rule="evenodd"/><path d="M 0 540.001 L 0 1080.002 540.250 1079.751 L 1080.500 1079.500 1080.751 539.750 L 1081.002 -0 540.501 -0 L 0 0 0 540.001 M 0.496 540.500 C 0.496 837.500, 0.610 958.851, 0.750 810.168 C 0.890 661.485, 0.890 418.485, 0.750 270.168 C 0.610 121.851, 0.496 243.500, 0.496 540.500 M 91 67.500 L 91 91 95.500 91 L 100 91 100 72 L 100 53 134 53 L 168 53 168 72 L 168 91 172.500 91 L 177 91 177 67.500 L 177 44 134 44 L 91 44 91 67.500 M 149 102.417 L 149 107 144.500 107 C 141.246 107, 140 107.400, 140 108.443 C 140 109.425, 141.356 109.983, 144.250 110.193 C 148.490 110.499, 148.501 110.510, 148.811 114.813 C 149.210 120.364, 151.385 119.899, 151.807 114.172 C 152.113 110.033, 152.147 110, 156.057 110 C 158.895 110, 160 109.580, 160 108.500 C 160 107.420, 158.895 107, 156.057 107 C 152.147 107, 152.113 106.967, 151.807 102.828 C 151.368 96.861, 149 96.515, 149 102.417 M 109.655 108.829 C 108.237 110.395, 108 113.379, 108 129.629 C 108 143.051, 108.351 148.951, 109.200 149.800 C 110.050 150.650, 116.017 151, 129.677 151 C 153.144 151, 152.243 151.575, 151.789 136.877 C 151.543 128.899, 151.243 127.474, 149.750 127.188 C 148.177 126.887, 148 127.872, 148 136.927 L 148 147 130 147 L 112 147 112 129 L 112 111 122 111 C 131.333 111, 132 110.867, 132 109 C 132 107.129, 131.333 107, 121.655 107 C 112.903 107, 111.055 107.282, 109.655 108.829 M 108.207 178.584 C 94.743 185.294, 87.304 203.265, 92.895 215.576 C 94.794 219.757, 99.595 223, 103.885 223 L 105.968 223 103.734 218.750 C 100.630 212.845, 100.555 200.310, 103.588 194.500 C 105.729 190.398, 113.035 184, 115.578 184 C 116.787 184, 117 190.895, 117 230 L 117 276 121.500 276 L 126 276 126.020 238.750 L 126.039 201.500 142.660 238.750 L 159.280 276 168.140 276 L 177 276 177 226 L 177 176 172.511 176 L 168.021 176 167.761 218.747 L 167.500 261.494 149.594 219.997 C 139.746 197.174, 130.998 177.938, 130.153 177.250 C 129.225 176.494, 125.610 176, 121.005 176 C 114.824 176, 112.418 176.486, 108.207 178.584 M 91 306.500 L 91 330 134 330 L 177 330 177 306.500 L 177 283 172.500 283 L 168 283 168 302 L 168 321 134 321 L 100 321 100 302 L 100 283 95.500 283 L 91 283 91 306.500" stroke="none" fill="#fbfbfb" fill-rule="evenodd"/></svg>